<?xml version="1.0" encoding="utf-8"?>
<!-- Generator: Adobe Illustrator 25.2.0, SVG Export Plug-In . SVG Version: 6.00 Build 0)  -->
<svg version="1.1" id="Layer_1" xmlns="http://www.w3.org/2000/svg" xmlns:xlink="http://www.w3.org/1999/xlink" x="0px" y="0px"
	 viewBox="0 0 1000 1000" style="enable-background:new 0 0 1000 1000;" xml:space="preserve">
<style type="text/css">
	.st0{fill:#FFFFFF;}
	.st1{fill:#00B5FA;}
	.st2{fill:#F57C94;}
	.g1{animation:2s glitcheffect1 infinite;animation-timing-function: step-end; }
	.g2{animation:2s glitcheffect2 infinite;animation-timing-function: step-end; }
	.g3{animation:2s glitcheffect3 infinite;animation-timing-function: step-end; }
	@keyframes glitcheffect1 {
		0% {
			opacity: 1;
		}
		80% {
			opacity: 0;
		}
		90% {
			opacity: 0;
		}
		100% {
			opacity: 0;
		}
	}
	@keyframes glitcheffect2 {
		0% {
			opacity: 0;
		}
		80% {
			opacity: 1;
		}
		90% {
			opacity: 0;
		}
		100% {
			opacity: 0;
		}
	}
	@keyframes glitcheffect3 {
		0% {
			opacity: 0;
		}
		80% {
			opacity: 0;
		}
		90% {
			opacity: 1;
		}
		100% {
			opacity: 0;
		}
	}
</style>
<g class="g1">
	<path class="st0" d="M797.3,283.8c33.3-19.9,58.2-51.3,70.1-88.3c-31.3,18.6-65.6,31.7-101.3,38.7c-31.4-33.4-73.8-50.3-116.4-50.3
		c-39.2,0-78.6,14.4-109.4,43.4c-24.1,22.6-40.1,51.8-46.8,83h-0.6c-4.8,22.5-4.8,46.2,0.6,69.4c-78.7-3.9-154-28.2-219.2-69.4h-0.1
		c-41.2-26-78.3-58.7-109.6-97.3c-17.7,30.5-24.2,64.6-20.7,97.3h0.1c4.9,45.5,29.3,88.5,70.1,115.8c-25.4-0.8-50.2-7.6-72.4-20v2
		c0,9.7,0.9,19.3,2.6,28.6h0.6c11.1,61.2,57.3,111.3,119,126.4h0c2.1,0.5,4.3,1,6.4,1.4c-23.5,6.4-48.1,7.4-72.1,2.8
		c20.9,65,80.8,109.5,149.1,110.8c-5.1,4-10.2,7.8-15.5,11.4h0c-53.6,37.1-117.3,57.1-182.7,57c-12.7,0-25.4-0.8-38-2.3
		c73,46.8,157.9,71.7,244.6,71.5v0.1c134.3,0,240.8-50.9,316.8-126.4h0c37.5-37.2,67.6-80.4,89.9-126.4h0
		c19.8-40.7,33.4-83.5,40.9-126.4h-0.6c4.3-25.1,6.5-50.2,6.5-74.8c0-6.9,0-13.8-0.5-20.6c13-9.4,25.3-19.7,36.7-30.9h0.6
		c16-15.7,30.4-33,42.9-51.7C859.8,271.6,828.9,280.1,797.3,283.8z"/>
</g>
<g class="g2">
	<path class="st1" d="M643,692.3h40c-71.8,71.3-170.9,120.8-295,125.9c5.9,0.2,11.8,0.3,17.7,0.3v0.1
		c134.3,0,240.8-50.9,316.8-126.4h-40L643,692.3L643,692.3z"/>
	<path class="st1" d="M762.8,565.9h-30c-22.3,46-52.4,89.2-89.9,126.4h39.4c37.5-37.2,67.6-80.4,89.9-126.4L762.8,565.9L762.8,565.9
		z"/>
	<path class="st1" d="M762.8,565.9h9.4h30c19.8-40.7,33.4-83.5,40.9-126.4h-39.4C796.3,482.4,782.6,525.2,762.8,565.9z"/>
	<path class="st1" d="M275.4,313.1h40c53.3,33.7,113.4,56,176.5,65.2c-0.5-2.6-1-5.3-1.4-7.9c-48.2-11.6-94-31-135.7-57.3h-40
		L275.4,313.1C275.4,313.1,275.4,313.1,275.4,313.1z"/>
	<path class="st1" d="M885.9,313.1h-39.4l0,0h40c-11.4,11.2-23.7,21.5-36.7,30.9c0.5,6.9,0.5,13.7,0.5,20.6
		c0,24.7-2.2,49.7-6.5,74.8h39.4c4.3-25.1,6.5-50.2,6.5-74.8c0-6.9,0-13.8-0.5-20.6c13-9.4,25.3-19.7,36.7-30.9H885.9z"/>
	<path class="st1" d="M275.4,313.1h39.4c-41.2-26-78.3-58.7-109.6-97.3c-5.5,9.5-10,19.4-13.3,29.4
		C217.1,271.2,245.1,294,275.4,313.1z"/>
	<path class="st1" d="M785.4,218.6c-28.2-21.2-62-31.9-95.8-31.9c-6.6,0-13.1,0.4-19.7,1.2c31.9,4,62.9,17.5,88,40.6
		C767.3,225.6,776.5,222.3,785.4,218.6z"/>
	<path class="st1" d="M885.9,313.1c16-15.7,30.4-33,42.9-51.7c-16.9,7.5-34.4,13.5-52.4,18c-9.2,12-19.2,23.2-30,33.8H885.9z"/>
	<path class="st1" d="M816.7,273.2c10.5-3.4,20.8-7.3,30.8-11.8c-4.3,6.4-8.8,12.6-13.5,18.7c6.9-1.6,13.8-3.5,20.5-5.6
		c24.6-19.5,43-46,52.7-76.2c-15.8,9.3-32.3,17.3-49.3,23.8C848,241.8,833.9,259.2,816.7,273.2z"/>
	<path class="st2" d="M117.8,749.3c-12.7,0-25.4-0.8-38-2.3c73,46.8,157.9,71.7,244.6,71.5v0.1c7.8,0,15.4-0.2,23-0.5
		c-78.7-3.2-155.3-26.9-222.2-68.9C122.7,749.3,120.2,749.3,117.8,749.3z"/>
	<path class="st2" d="M342.3,692.3h-40l0,0h-1.8c-47.7,33.1-103.6,52.5-161.5,56.3c6.9,0.4,13.7,0.7,20.6,0.7
		C225,749.4,288.8,729.4,342.3,692.3z"/>
	<path class="st2" d="M317.8,680.9c-67.4-1.3-126.7-44.7-148.3-108.4c-14.2,1.1-28.5,0.3-42.6-2.4c20.9,65,80.8,109.5,149.1,110.8
		c-5.1,4-10.2,7.8-15.5,11.4h40h1.8C307.6,688.7,312.7,684.9,317.8,680.9z"/>
	<path class="st2" d="M240.7,567.3c-2.2-0.4-4.3-0.9-6.4-1.4h30c0,0,0,0,0,0h-41.8h-30c2.1,0.5,4.3,1,6.4,1.4
		c-6.9,1.9-14,3.3-21.1,4.2C198.9,574.4,220.2,572.9,240.7,567.3z"/>
	<path class="st2" d="M145.3,439.5h40v0h-0.6h-41.3h-40c11.1,61.2,57.3,111.3,119,126.4h41.8C202.6,550.8,156.4,500.7,145.3,439.5z"
		/>
	<path class="st2" d="M185.3,439.5c-0.9-4.7-1.5-9.6-1.9-14.4c-14.8-3.3-29.1-8.7-42.5-16.2v2c0,9.7,0.9,19.3,2.6,28.6h41.3H185.3z"
		/>
	<path class="st2" d="M255.2,428.9c-40.8-27.3-65.2-70.2-70.1-115.8h-40v0h-1.8c4.2,38.7,22.4,75.5,52.7,102.4
		C214.6,423.7,234.7,428.3,255.2,428.9z"/>
	<path class="st2" d="M534.6,382.5c-5.4-23.2-5.4-46.9-0.6-69.4h-40v0h-1.8c-4,18.6-4.6,38.1-1.7,57.3c0.4,2.6,0.9,5.3,1.4,7.9
		C506,380.4,520.3,381.8,534.6,382.5z"/>
	<path class="st2" d="M151.8,247c-9.7-9.9-19.1-20.3-27.9-31.2c-17.7,30.5-24.2,64.6-20.7,97.3h40h1.8
		C142.7,291.2,144.9,268.7,151.8,247z"/>
	<path class="st2" d="M540.8,230.1c25.4-23.8,56.4-37.8,88.5-42c-6.9-0.9-13.9-1.4-20.9-1.4c-39.2,0-78.6,14.4-109.4,43.4
		c-24.1,22.6-40.1,51.8-46.8,83h40h1.8C500.7,281.8,516.7,252.7,540.8,230.1z"/>
	<path class="st2" d="M816.7,273.2c-6,4.9-12.3,9.3-19,13.3c12.2-1.4,24.4-3.6,36.3-6.5c4.7-6.1,9.2-12.3,13.5-18.7
		C837.5,265.9,827.2,269.8,816.7,273.2z"/>
	<path class="st2" d="M766.6,237c16.7-3.3,33.1-7.9,49.1-13.8c4.1-7.9,7.6-16.3,10.4-24.9c-13.1,7.7-26.6,14.5-40.6,20.3
		c-9,3.7-18.1,7.1-27.4,10C760.9,231.2,763.8,234,766.6,237z"/>
	<path class="st0" d="M846.5,313.1L846.5,313.1c10.8-10.5,20.8-21.8,30-33.8c4.5-5.8,8.8-11.8,12.9-18c-11.3,5-22.9,9.4-34.8,13
		c-6.8,2.1-13.6,4-20.5,5.6c-12,2.8-24.1,5-36.3,6.5c6.7-4,13-8.5,19-13.3c17.2-14,31.2-31.4,41.3-51.1c3.9-7.6,7.2-15.6,9.9-23.8
		c-16.7,9.9-34.2,18.2-52.3,24.9c-15.9,5.9-32.3,10.5-49.1,13.8c-2.8-2.9-5.6-5.8-8.6-8.4c-25.2-23.1-56.1-36.7-88-40.6
		c-6.6-0.8-13.2-1.2-19.8-1.2c-7,0-14,0.5-20.9,1.4c-32.1,4.2-63.1,18.2-88.5,42c-24.1,22.6-40.1,51.7-46.8,83v0h40
		c-4.8,22.5-4.8,46.2,0.6,69.4c-14.4-0.7-28.6-2.1-42.7-4.2c-63.1-9.2-123.2-31.6-176.5-65.2h-40c0,0,0,0,0,0
		c-30.3-19.1-58.3-41.9-83.5-67.9c-9.1-9.4-17.8-19.2-26.1-29.4c-5.9,10.1-10.5,20.5-13.9,31.2c-7,21.6-9.1,44.1-6.8,66.1v0h40
		c4.9,45.5,29.3,88.5,70.1,115.8c-20.5-0.6-40.5-5.2-59.2-13.4c-4.5-2-8.9-4.2-13.3-6.6v2c0,4.8,0.2,9.5,0.6,14.2
		c0.4,4.9,1.1,9.7,1.9,14.4v0h-40c11.1,61.2,57.3,111.3,119,126.4c0,0,0,0,0,0h-30c2.1,0.5,4.3,1,6.4,1.4c-20.5,5.6-41.9,7-62.9,4.2
		c-3.1-0.4-6.1-0.9-9.2-1.5c0.3,0.8,0.5,1.6,0.8,2.4c21.6,63.7,80.8,107.2,148.3,108.4c-5.1,4-10.2,7.8-15.5,11.4l0,0h40
		c-53.6,37.1-117.3,57.1-182.7,57c-6.9,0-13.7-0.3-20.6-0.7c-5.8-0.4-11.6-0.9-17.4-1.6c1.2,0.8,2.4,1.5,3.5,2.2
		c66.9,42,143.5,65.8,222.2,68.9c6.3,0.3,12.6,0.4,18.9,0.4v0.1c7.3,0,14.6-0.2,21.8-0.5c124.1-5.2,223.2-54.6,295-125.9h-40l0,0
		c37.5-37.2,67.5-80.4,89.9-126.4h30v0c19.8-40.7,33.4-83.5,40.9-126.4h39.4h0.6v0c4.3-25.1,6.5-50.2,6.5-74.8
		c0-6.9,0-13.8-0.5-20.6c13-9.4,25.3-19.7,36.7-30.9H846.5z"/>
</g>
<g class="g3">
	<path class="st1" d="M368.8,818.7v-0.1c-86.7,0.1-171.6-24.7-244.6-71.5c12.6,1.5,25.3,2.3,38,2.3c65.4,0.1,129.2-19.9,182.7-57
		h340.7C609.6,767.8,503.1,818.7,368.8,818.7z"/>
	<path class="st1" d="M815.4,565.9c-22.3,46-52.4,89.2-89.9,126.4H384.9c5.3-3.6,10.4-7.4,15.5-11.4
		c-68.3-1.3-128.2-45.8-149.1-110.8c23.9,4.6,48.6,3.7,72-2.8c-2.2-0.4-4.3-0.9-6.4-1.4H815.4z"/>
	<path class="st1" d="M816.2,439.5c-7.4,42.9-21.1,85.7-40.9,126.4H276.9c-61.7-15.1-107.9-65.2-119-126.4H816.2z"/>
	<path class="st1" d="M862.3,344c0.5,6.9,0.5,13.7,0.5,20.6c0,24.7-2.2,49.7-6.5,74.8H197.8c-1.7-9.3-2.6-18.8-2.6-28.6v-2
		c22.2,12.4,47,19.2,72.4,20c-40.8-27.3-65.2-70.2-70.1-115.8H328c65.2,41.2,140.6,65.5,219.2,69.4c-5.4-23.2-5.4-46.9-0.6-69.4H899
		C887.6,324.3,875.3,334.6,862.3,344z"/>
	<path class="st1" d="M308,313.1H177.6c-3.5-32.7,3-66.8,20.7-97.3C229.7,254.4,266.8,287.1,308,313.1z M830.3,286.5
		c33.3-19.9,58.2-51.3,70.1-88.3c-31.3,18.6-65.6,31.7-101.3,38.7c-31.4-33.4-73.8-50.3-116.4-50.3c-39.2,0-78.6,14.4-109.4,43.4
		c-24.1,22.6-40.1,51.8-46.8,83H879c16-15.7,30.4-33,42.9-51.7C892.8,274.3,861.9,282.8,830.3,286.5z"/>
	<path class="st2" d="M280.2,816v-0.1c-86.7,0.1-171.6-24.7-244.6-71.5c12.6,1.5,25.3,2.3,38,2.3c65.4,0.1,129.2-19.9,182.7-57H597
		C521,765.1,414.5,816,280.2,816z"/>
	<path class="st2" d="M726.8,563.2c-22.3,46-52.4,89.2-89.9,126.4H296.3c5.3-3.6,10.4-7.4,15.5-11.4
		c-68.3-1.3-128.2-45.8-149.1-110.8c23.9,4.6,48.6,3.7,72-2.8c-2.2-0.4-4.3-0.9-6.4-1.4H726.8z"/>
	<path class="st2" d="M727.7,436.8c-7.4,42.9-21.1,85.7-40.9,126.4H188.3c-61.7-15.1-107.9-65.2-119-126.4H727.7z"/>
	<path class="st2" d="M773.8,341.3c0.5,6.9,0.5,13.7,0.5,20.6c0,24.7-2.2,49.7-6.5,74.8H109.3c-1.7-9.3-2.6-18.8-2.6-28.6v-2
		c22.2,12.4,47,19.2,72.4,20c-40.8-27.3-65.2-70.2-70.1-115.8h130.3c65.2,41.2,140.6,65.5,219.2,69.4c-5.4-23.2-5.4-46.9-0.6-69.4
		h352.5C799,321.6,786.8,331.9,773.8,341.3z"/>
	<path class="st2" d="M219.4,310.4H89.1c-3.5-32.7,3-66.8,20.7-97.3C141.1,251.7,178.2,284.4,219.4,310.4z M741.8,283.8
		c33.3-19.9,58.2-51.3,70.1-88.3c-31.3,18.6-65.6,31.7-101.3,38.7c-31.4-33.4-73.8-50.3-116.4-50.3c-39.2,0-78.6,14.4-109.4,43.4
		c-24.1,22.6-40.1,51.8-46.8,83h352.5c16-15.7,30.4-33,42.9-51.7C804.3,271.6,773.4,280.1,741.8,283.8z"/>
	<path class="st0" d="M826.5,313.1c16-15.7,30.4-33,42.9-51.7c-29.1,12.9-60,21.4-91.6,25.1c33.3-19.9,58.2-51.3,70.1-88.3
		c-31.3,18.6-65.6,31.7-101.3,38.7c-31.4-33.4-73.8-50.3-116.4-50.3c-39.2,0-78.6,14.4-109.4,43.4c-24.1,22.6-40.1,51.8-46.8,83h20
		c-4.8,22.5-4.8,46.2,0.6,69.4c-78.7-3.9-154-28.2-219.2-69.4h-20c-41.2-26-78.3-58.7-109.6-97.3c-17.7,30.5-24.2,64.6-20.7,97.3h20
		c4.9,45.5,29.3,88.5,70.1,115.8c-25.4-0.8-50.2-7.6-72.4-20v2c0,9.7,0.9,19.3,2.6,28.6h-40c11.1,61.2,57.3,111.3,119,126.4h40
		c2.1,0.5,4.3,1,6.4,1.4c-23.5,6.4-48.1,7.4-72,2.8c20.9,65,80.8,109.5,149.1,110.8c-5.1,4-10.2,7.8-15.5,11.4h-40
		c-53.6,37.1-117.3,57.1-182.7,57c-12.7,0-25.4-0.8-38-2.3c73,46.8,157.9,71.7,244.6,71.5v0.1c134.3,0,240.8-50.9,316.8-126.4h40
		c37.5-37.2,67.6-80.4,89.9-126.4h-40c19.8-40.7,33.4-83.5,40.9-126.4h40c4.3-25.1,6.5-50.2,6.5-74.8c0-6.9,0-13.8-0.5-20.6
		c13-9.4,25.3-19.7,36.7-30.9H826.5z"/>
</g>
</svg>
